<svg width="23" height="22" viewBox="0 0 23 22" fill="none" xmlns="http://www.w3.org/2000/svg">
<path d="M6.96053 0C3.12255 0 0 2.98679 0 6.65789V15.3421C0 19.0132 3.12255 22 6.96053 22H16.0395C19.8774 22 23 19.0132 23 15.3421V6.65789C23 2.98679 19.8774 0 16.0395 0H6.96053ZM17.5526 4.05263C18.2214 4.05263 18.7632 4.57079 18.7632 5.21053C18.7632 5.84968 18.2214 6.36842 17.5526 6.36842C16.8838 6.36842 16.3421 5.84968 16.3421 5.21053C16.3421 4.57079 16.8838 4.05263 17.5526 4.05263ZM11.5 5.21053C14.8374 5.21053 17.5526 7.80768 17.5526 11C17.5526 14.1923 14.8374 16.7895 11.5 16.7895C8.16258 16.7895 5.44737 14.1923 5.44737 11C5.44737 7.80768 8.16258 5.21053 11.5 5.21053ZM11.5 6.94737C10.9436 6.94737 10.3927 7.05219 9.87863 7.25586C9.36459 7.45952 8.89753 7.75804 8.5041 8.13436C8.11067 8.51068 7.79859 8.95744 7.58567 9.44913C7.37275 9.94081 7.26316 10.4678 7.26316 11C7.26316 11.5322 7.37275 12.0592 7.58567 12.5509C7.79859 13.0426 8.11067 13.4893 8.5041 13.8656C8.89753 14.242 9.36459 14.5405 9.87863 14.7441C10.3927 14.9478 10.9436 15.0526 11.5 15.0526C12.0564 15.0526 12.6073 14.9478 13.1214 14.7441C13.6354 14.5405 14.1025 14.242 14.4959 13.8656C14.8893 13.4893 15.2014 13.0426 15.4143 12.5509C15.6273 12.0592 15.7368 11.5322 15.7368 11C15.7368 10.4678 15.6273 9.94081 15.4143 9.44913C15.2014 8.95744 14.8893 8.51068 14.4959 8.13436C14.1025 7.75804 13.6354 7.45952 13.1214 7.25586C12.6073 7.05219 12.0564 6.94737 11.5 6.94737Z" fill="#2154A0"/>
</svg>
