<svg width="25" height="22" viewBox="0 0 25 22" fill="none" xmlns="http://www.w3.org/2000/svg">
<path d="M24.5279 0.302436C24.1015 -0.0473654 23.4317 -0.0974155 22.7391 0.171535H22.738C22.0096 0.454236 2.12018 8.70646 1.3105 9.04361C1.16323 9.09311 -0.122925 9.55731 0.00955743 10.5913C0.127825 11.5236 1.16153 11.9097 1.28776 11.9542L6.34427 13.629C6.67974 14.7092 7.91643 18.6945 8.18992 19.5459C8.3605 20.0766 8.63854 20.774 9.12583 20.9176C9.55341 21.0771 9.97872 20.9313 10.2539 20.7223L13.3454 17.9487L18.3359 21.7134L18.4548 21.7822C18.7936 21.9274 19.1183 22 19.4282 22C19.6676 22 19.8973 21.9566 20.1168 21.8696C20.8645 21.5726 21.1635 20.8835 21.1948 20.8054L24.9225 2.06299C25.15 1.06199 24.8338 0.552686 24.5279 0.302436ZM10.8038 14.2989L9.09797 18.6989L7.39218 13.1989L20.4699 3.84885L10.8038 14.2989Z" fill="#2154A0"/>
</svg>
