<svg width="22" height="22" viewBox="0 0 22 22" fill="none" xmlns="http://www.w3.org/2000/svg">
<path d="M11 0C4.9335 0 0 4.9335 0 11C0 12.7545 0.4235 14.487 1.2265 16.0435L0.0495001 20.2565C-0.0824999 20.735 0.055 21.2465 0.4015 21.5985C0.6655 21.857 1.0175 22 1.375 22C1.5015 22 1.6225 21.9835 1.7435 21.9505L5.9565 20.7735C7.513 21.5765 9.251 22 11 22C17.0665 22 22 17.0665 22 11C22 4.9335 17.0665 0 11 0ZM16.698 15.0535C16.456 15.73 15.268 16.3845 14.7345 16.434C14.201 16.4835 13.7005 16.676 11.2475 15.708C8.2885 14.542 6.4185 11.5115 6.2755 11.3135C6.127 11.121 5.0875 9.7405 5.0875 8.305C5.0875 6.875 5.841 6.171 6.105 5.8795C6.3745 5.588 6.688 5.5165 6.8805 5.5165C7.0785 5.5165 7.271 5.5165 7.4415 5.522C7.645 5.533 7.876 5.544 8.096 6.028C8.3545 6.6 8.921 8.041 8.9925 8.1895C9.064 8.3325 9.1135 8.503 9.0145 8.6955C8.921 8.888 8.8715 9.009 8.723 9.1795C8.58 9.35 8.4205 9.559 8.2885 9.691C8.1455 9.834 7.9915 9.9935 8.162 10.285C8.3325 10.5765 8.9155 11.528 9.779 12.298C10.89 13.288 11.825 13.596 12.1165 13.7445C12.408 13.8875 12.5785 13.8655 12.749 13.6675C12.9195 13.475 13.475 12.8205 13.673 12.529C13.8655 12.2375 14.058 12.287 14.3275 12.386C14.5915 12.4795 16.0215 13.1835 16.313 13.332C16.6045 13.475 16.797 13.5465 16.8685 13.6675C16.94 13.7885 16.94 14.3715 16.698 15.0535Z" fill="#2154A0"/>
</svg>
